<?xml version="1.0" encoding="UTF-8"?>
<svg version="1.1" xmlns="http://www.w3.org/2000/svg" width="500" height="500">
<path d="M0 0 C165 0 330 0 500 0 C500 165 500 330 500 500 C335 500 170 500 0 500 C0 335 0 170 0 0 Z " fill="#000E17" transform="translate(0,0)"/>
<path d="M0 0 C5.91979368 1.55042215 10.06856263 4.2886473 13.64453125 9.30859375 C16.04275073 14.07047624 15.68440232 18.80385809 15 24 C12.28380987 32.16169207 5.22325694 40.01564647 -1.703125 44.91015625 C-4.63175508 47.57481117 -4.81126221 49.24312432 -5.25 53.125 C-5.9579288 58.91585761 -5.9579288 58.91585761 -7 61 C-8.29292969 61.00257813 -9.58585937 61.00515625 -10.91796875 61.0078125 C-22.03647144 61.19725946 -30.27416512 62.19644524 -40 68 C-36.535 67.505 -36.535 67.505 -33 67 C-34.20160938 78.41528914 -40.22520339 89.65782325 -49 97 C-50.98 97.33 -52.96 97.66 -55 98 C-55 89.42 -55 80.84 -55 72 C-56.98 72 -58.96 72 -61 72 C-61 80.58 -61 89.16 -61 98 C-67.40498526 96.71900295 -70.81415477 94.21279088 -74.48828125 88.8125 C-76.85045971 84.6873978 -78.70495989 80.59150583 -80 76 C-81.98 76 -83.96 76 -86 76 C-84.71078784 78.60540782 -83.41874404 81.20934373 -82.125 83.8125 C-81.76019531 84.55048828 -81.39539063 85.28847656 -81.01953125 86.04882812 C-80.48779297 87.11713867 -80.48779297 87.11713867 -79.9453125 88.20703125 C-79.45828857 89.18893433 -79.45828857 89.18893433 -78.96142578 90.19067383 C-77.90744328 92.24652798 -77.90744328 92.24652798 -76 95 C-84.09548728 92.92423403 -90.88624296 87.53149447 -97 82 C-97.391875 81.31421875 -97.78375 80.6284375 -98.1875 79.921875 C-100.87834786 77.06864839 -103.90571744 77.16103298 -107.625 76.875 C-109.06543291 76.73245039 -110.50554626 76.58663263 -111.9453125 76.4375 C-112.64043945 76.36789063 -113.33556641 76.29828125 -114.05175781 76.2265625 C-117.78036331 75.79296026 -121.36361826 74.90909543 -125 74 C-125 73.67 -125 73.34 -125 73 C-123.96931396 72.87995605 -122.93862793 72.75991211 -121.87670898 72.63623047 C-92.56600327 69.21268199 -92.56600327 69.21268199 -64 62 C-63.2997168 61.77763672 -62.59943359 61.55527344 -61.87792969 61.32617188 C-39.74383007 54.12372081 -10.82256295 42.39311331 1.0625 21 C3.50222745 15.55493355 4.17296987 10.61221404 2.3125 4.8828125 C1.61842065 3.22102635 0.81901305 1.60390055 0 0 Z " fill="#00BA61" transform="translate(306,162)"/>
<path d="M0 0 C4.31604547 0.49800525 5.5436701 2.06726345 8.25 5.375 C8.58 6.1175 8.91 6.86 9.25 7.625 C10.15274438 9.67777024 10.15274438 9.67777024 12.875 10.125 C13.65875 10.2075 14.4425 10.29 15.25 10.375 C14.59 11.695 13.93 13.015 13.25 14.375 C11.991875 14.395625 10.73375 14.41625 9.4375 14.4375 C8.72980469 14.44910156 8.02210938 14.46070313 7.29296875 14.47265625 C5.25 14.375 5.25 14.375 2.25 13.375 C1.92 17.995 1.59 22.615 1.25 27.375 C3.23 27.375 5.21 27.375 7.25 27.375 C7.25 26.715 7.25 26.055 7.25 25.375 C10.34173752 23.82913124 12.84429552 24.08140479 16.25 24.375 C18.75 26.0625 18.75 26.0625 20.25 28.375 C20 30.5625 20 30.5625 19.25 33.375 C19.14387978 36.37668629 19.19112537 39.37239366 19.25 42.375 C21.21614267 42.22842916 21.21614267 42.22842916 23.25 41.375 C24.3875213 39.29465706 24.3875213 39.29465706 25 36.8125 C25.24234375 35.98621094 25.4846875 35.15992188 25.734375 34.30859375 C25.90453125 33.67050781 26.0746875 33.03242188 26.25 32.375 C26.91 32.375 27.57 32.375 28.25 32.375 C28.37375 31.75625 28.4975 31.1375 28.625 30.5 C29.25 28.375 29.25 28.375 31.25 26.375 C32.57 26.705 33.89 27.035 35.25 27.375 C35.745 36.285 35.745 36.285 36.25 45.375 C36.25 38.775 36.25 32.175 36.25 25.375 C38.56 25.705 40.87 26.035 43.25 26.375 C44.61733028 25.42201223 45.95264493 24.42125409 47.25 23.375 C51.18985436 22.77545694 52.91970716 23.19366276 56.4375 25.125 C62.01615515 29.58792412 62.01615515 29.58792412 62.51879883 33.42919922 C62.61812733 35.93884815 62.60959467 38.4264122 62.5625 40.9375 C62.56572266 41.80052734 62.56894531 42.66355469 62.57226562 43.55273438 C62.51738366 49.97392451 62.51738366 49.97392451 60.25 53.375 C55.375 51.5 55.375 51.5 54.25 50.375 C54.01298761 47.51622091 53.82780818 44.67616703 53.6875 41.8125 C53.62272461 40.60303711 53.62272461 40.60303711 53.55664062 39.36914062 C53.45024738 37.37131195 53.34959112 35.3731793 53.25 33.375 C51.30396726 32.78429986 51.30396726 32.78429986 49.25 32.375 C48.04317574 33.35477901 48.04317574 33.35477901 48.18408203 35.20092773 C48.20841309 35.97895752 48.23274414 36.7569873 48.2578125 37.55859375 C48.27457031 38.40357422 48.29132813 39.24855469 48.30859375 40.11914062 C48.35277351 41.9110196 48.40482536 43.70272222 48.46484375 45.49414062 C48.47902344 46.34041016 48.49320312 47.18667969 48.5078125 48.05859375 C48.5298877 48.83775146 48.55196289 49.61690918 48.57470703 50.41967773 C48.46755371 51.06493408 48.36040039 51.71019043 48.25 52.375 C44.61804504 54.79630331 42.86650652 54.58522785 38.5625 54.5 C37.38300781 54.48195313 36.20351563 54.46390625 34.98828125 54.4453125 C33.63283203 54.41050781 33.63283203 54.41050781 32.25 54.375 C31.59 53.055 30.93 51.735 30.25 50.375 C29.651875 50.87 29.05375 51.365 28.4375 51.875 C23.72577964 54.09228017 19.37083295 54.03824041 14.25 53.375 C10.30753643 51.48590287 8.98343298 49.25145251 7.4375 45.3125 C5.8690325 40.02553091 5.97414976 34.84092134 6.25 29.375 C4.6 29.705 2.95 30.035 1.25 30.375 C1.29600342 31.11661377 1.34200684 31.85822754 1.3894043 32.62231445 C1.58835647 35.97664276 1.76320197 39.33180416 1.9375 42.6875 C2.01033203 43.85474609 2.08316406 45.02199219 2.15820312 46.22460938 C2.21298828 47.34287109 2.26777344 48.46113281 2.32421875 49.61328125 C2.38182373 50.64493408 2.43942871 51.67658691 2.4987793 52.73950195 C2.25 55.375 2.25 55.375 0.93676758 57.21166992 C-1.66495315 59.006025 -3.68641836 58.76609553 -6.75 58.375 C-8.91926659 55.12110012 -8.99080049 54.24104043 -8.9453125 50.48828125 C-8.93886719 49.55048828 -8.93242187 48.61269531 -8.92578125 47.64648438 C-8.90902344 46.67001953 -8.89226562 45.69355469 -8.875 44.6875 C-8.86597656 43.69943359 -8.85695312 42.71136719 -8.84765625 41.69335938 C-8.8240843 39.25366235 -8.79118022 36.81445303 -8.75 34.375 C-10.07 34.045 -11.39 33.715 -12.75 33.375 C-12.75 32.715 -12.75 32.055 -12.75 31.375 C-11.43 31.375 -10.11 31.375 -8.75 31.375 C-8.78927612 30.43817383 -8.78927612 30.43817383 -8.8293457 29.48242188 C-8.93419459 26.61354399 -8.99859894 23.74507041 -9.0625 20.875 C-9.10439453 19.89273437 -9.14628906 18.91046875 -9.18945312 17.8984375 C-9.30410035 11.01960388 -8.13119329 6.73210749 -3.75 1.375 C-2.75 0.375 -2.75 0.375 0 0 Z " fill="#F7F7F8" transform="translate(258.75,275.625)"/>
<path d="M0 0 C9.76131864 2.16950841 19.23222848 2.01494305 29.10498047 0.43530273 C25.08247414 4.84994018 19.94505042 7.11735199 13.97607422 7.61157227 C9.01273928 7.77848645 4.06518422 7.64245742 -0.89501953 7.43530273 C-1.16443359 8.14686523 -1.43384766 8.85842773 -1.71142578 9.59155273 C-8.51876001 25.94712805 -22.64511539 41.97732224 -36.89501953 52.43530273 C-37.55501953 52.43530273 -38.21501953 52.43530273 -38.89501953 52.43530273 C-38.89501953 53.09530273 -38.89501953 53.75530273 -38.89501953 54.43530273 C-39.55501953 54.10530273 -40.21501953 53.77530273 -40.89501953 53.43530273 C-39.84314453 51.98124023 -39.84314453 51.98124023 -38.77001953 50.49780273 C-28.72699325 36.39316706 -20.29603563 21.30586445 -15.89501953 4.43530273 C-25.89131657 4.65699106 -25.89131657 4.65699106 -34.89501953 8.43530273 C-33.79749628 3.77082892 -31.21656323 1.25204365 -27.39501953 -1.38891602 C-18.87191457 -5.39743882 -8.7130278 -2.00210941 0 0 Z " fill="#00B75F" transform="translate(253.89501953125,148.564697265625)"/>
<path d="M0 0 C5.27599298 1.07673326 7.22320197 5.36605295 10.0625 9.625 C12.62532742 10.35465366 12.62532742 10.35465366 15.0625 10.625 C13.88671875 12.609375 13.88671875 12.609375 12.0625 14.625 C9.58203125 15.015625 9.58203125 15.015625 6.875 14.875 C5.97394531 14.83890625 5.07289063 14.8028125 4.14453125 14.765625 C3.45746094 14.71921875 2.77039063 14.6728125 2.0625 14.625 C2.00191406 15.39585937 1.94132813 16.16671875 1.87890625 16.9609375 C1.79511719 17.96382813 1.71132812 18.96671875 1.625 20 C1.54378906 20.99773437 1.46257812 21.99546875 1.37890625 23.0234375 C1.0625 25.625 1.0625 25.625 0.0625 27.625 C2.0425 27.625 4.0225 27.625 6.0625 27.625 C4.42837557 29.33340281 3.19343906 30.55953047 1.0625 31.625 C1.08606567 32.6919812 1.08606567 32.6919812 1.11010742 33.78051758 C1.17241915 36.99943104 1.21147867 40.21821768 1.25 43.4375 C1.27513672 44.55705078 1.30027344 45.67660156 1.32617188 46.83007812 C1.34067383 48.43979492 1.34067383 48.43979492 1.35546875 50.08203125 C1.37903442 51.5666687 1.37903442 51.5666687 1.40307617 53.08129883 C1.0625 55.625 1.0625 55.625 -0.29956055 57.4440918 C-1.9375 58.625 -1.9375 58.625 -4.4375 59.0625 C-6.9375 58.625 -6.9375 58.625 -8.58911133 56.89550781 C-10.17323477 54.22805389 -10.22772482 52.92273376 -10.01171875 49.859375 C-9.95693359 48.96992188 -9.90214844 48.08046875 -9.84570312 47.1640625 C-9.77287109 46.24367188 -9.70003906 45.32328125 -9.625 44.375 C-9.56376953 43.43914062 -9.50253906 42.50328125 -9.43945312 41.5390625 C-9.28649942 39.2329912 -9.1187095 36.92899467 -8.9375 34.625 C-10.5875 34.295 -12.2375 33.965 -13.9375 33.625 C-13.9375 32.965 -13.9375 32.305 -13.9375 31.625 C-12.6175 31.625 -11.2975 31.625 -9.9375 31.625 C-9.97230469 30.34625 -10.00710937 29.0675 -10.04296875 27.75 C-10.07112787 26.04167991 -10.09842574 24.33334548 -10.125 22.625 C-10.15013672 21.78582031 -10.17527344 20.94664062 -10.20117188 20.08203125 C-10.28062243 13.24928326 -9.23292927 7.79110934 -5.125 2.125 C-2.9375 0.625 -2.9375 0.625 0 0 Z " fill="#F5F5F6" transform="translate(166.9375,275.375)"/>
<path d="M0 0 C2.11834035 2.11834035 1.16419113 6.84603374 1.16796875 9.77734375 C1.17129715 10.65902725 1.17462555 11.54071075 1.17805481 12.44911194 C1.18312783 14.31787594 1.18546302 16.18664904 1.18530273 18.05541992 C1.18748808 20.92186344 1.20563655 23.7879216 1.22460938 26.65429688 C1.22754339 28.46614451 1.22952813 30.27799398 1.23046875 32.08984375 C1.23765427 32.9513353 1.24483978 33.81282684 1.25224304 34.70042419 C1.2288216 40.7711784 1.2288216 40.7711784 -1 43 C-4 43.3125 -4 43.3125 -7 43 C-9.02125972 39.96811042 -9.26674093 39.02056575 -9.5 35.5625 C-9.72642011 32.21714292 -10.34531011 29.92906798 -12 27 C-12.66 27 -13.32 27 -14 27 C-14.33448259 29.832168 -14.33448259 29.832168 -14 33 C-12.08333079 35.25065102 -12.08333079 35.25065102 -10 37 C-10 37.66 -10 38.32 -10 39 C-12.84083641 40.42041821 -14.85477278 40.31452272 -18 40 C-20.84239108 37.84122197 -21.87801355 36.62675795 -22.56640625 33.08984375 C-22.56511719 32.04957031 -22.56382812 31.00929688 -22.5625 29.9375 C-22.58441406 28.89464844 -22.60632813 27.85179687 -22.62890625 26.77734375 C-22 24 -22 24 -19.515625 22.265625 C-18.68546875 21.84796875 -17.8553125 21.4303125 -17 21 C-16.12177688 18.91466367 -16.12177688 18.91466367 -16 17 C-13.69 17.33 -11.38 17.66 -9 18 C-9.01160156 16.95199219 -9.02320313 15.90398437 -9.03515625 14.82421875 C-9.04453655 13.44531428 -9.0536365 12.06640789 -9.0625 10.6875 C-9.07087891 9.99720703 -9.07925781 9.30691406 -9.08789062 8.59570312 C-9.10307906 5.4516975 -9.00193327 3.00579981 -8 0 C-5.11795733 -1.44102133 -3.08226581 -0.65580124 0 0 Z " fill="#F5F5F6" transform="translate(346,289)"/>
<path d="M0 0 C0.99 0.33 1.98 0.66 3 1 C3 3 3 5 3 7 C4.32 7.33 5.64 7.66 7 8 C7.01981934 8.62044189 7.03963867 9.24088379 7.06005859 9.88012695 C7.15531845 12.69134537 7.26499302 15.50182166 7.375 18.3125 C7.4059375 19.28896484 7.436875 20.26542969 7.46875 21.27148438 C7.50742188 22.20927734 7.54609375 23.14707031 7.5859375 24.11328125 C7.63306885 25.40939331 7.63306885 25.40939331 7.68115234 26.73168945 C7.87188037 29.27742445 7.87188037 29.27742445 10 32 C6.39703406 32.41176754 5.21597933 32.1535853 2.1875 30 C1.465625 29.34 0.74375 28.68 0 28 C-0.99 28.66 -1.98 29.32 -3 30 C-7.07306536 30.45256282 -9.26611339 30.44033197 -12.8125 28.3125 C-16.24478476 24.68408468 -16.88778682 22.14083405 -17.375 17.1875 C-17.19231791 11.13615586 -14.54132854 6.14372421 -10.1875 2 C-6.4138216 -0.36779821 -4.37783306 -0.49560374 0 0 Z " fill="#F4F5F5" transform="translate(190,299)"/>
<path d="M0 0 C4.6192903 0.64670064 7.42278918 2.85171398 10.78125 5.98046875 C12.89720297 9.84946415 12.5187609 13.66716863 12.4375 18 C12.44233398 19.29454102 12.44233398 19.29454102 12.44726562 20.61523438 C12.39238366 27.03642451 12.39238366 27.03642451 10.125 30.4375 C5.25 28.5625 5.25 28.5625 4.125 27.4375 C3.88798761 24.57872091 3.70280818 21.73866703 3.5625 18.875 C3.51931641 18.06869141 3.47613281 17.26238281 3.43164062 16.43164062 C3.32524738 14.43381195 3.22459112 12.4356793 3.125 10.4375 C1.17896726 9.84679986 1.17896726 9.84679986 -0.875 9.4375 C-2.08182426 10.41727901 -2.08182426 10.41727901 -1.94091797 12.26342773 C-1.91658691 13.04145752 -1.89225586 13.8194873 -1.8671875 14.62109375 C-1.84205078 15.88856445 -1.84205078 15.88856445 -1.81640625 17.18164062 C-1.77222649 18.9735196 -1.72017464 20.76522222 -1.66015625 22.55664062 C-1.64597656 23.40291016 -1.63179688 24.24917969 -1.6171875 25.12109375 C-1.58407471 26.28983032 -1.58407471 26.28983032 -1.55029297 27.48217773 C-1.71102295 28.45006226 -1.71102295 28.45006226 -1.875 29.4375 C-4.96388522 31.49675681 -5.58435927 31.6765374 -9.0625 31.5625 C-10.320625 31.52125 -11.57875 31.48 -12.875 31.4375 C-14.17933619 25.50122979 -13.98586318 19.60417748 -13.9375 13.5625 C-13.93298828 12.49257813 -13.92847656 11.42265625 -13.92382812 10.3203125 C-13.91209749 7.69265014 -13.89568228 5.06510462 -13.875 2.4375 C-12.76253906 2.63214844 -11.65007812 2.82679688 -10.50390625 3.02734375 C-6.95799767 3.83259043 -6.95799767 3.83259043 -4.8125 2 C-2.875 0.4375 -2.875 0.4375 0 0 Z " fill="#F1F2F2" transform="translate(308.875,298.5625)"/>
<path d="M0 0 C3.125 1.6875 3.125 1.6875 5 4 C5.4375 6.625 5.4375 6.625 5 9 C3 11 3 11 0.8359375 11.1953125 C-0.38222656 11.16050781 -0.38222656 11.16050781 -1.625 11.125 C-2.44226563 11.10695313 -3.25953125 11.08890625 -4.1015625 11.0703125 C-4.72804687 11.04710937 -5.35453125 11.02390625 -6 11 C-7.01540112 15.10223585 -7.01540112 15.10223585 -6 19 C-4.00532821 19.22889676 -2.01011162 19.45469744 -0.01171875 19.6484375 C2.588868 20.10290897 4.11143894 21.19012898 6 23 C1.69863014 28.83757339 1.69863014 28.83757339 -2 30 C-6.12751695 30.45861299 -8.43902875 30.27498591 -12.1875 28.4375 C-15.98291891 25.14813695 -18.41752245 22.01937343 -19.3828125 17.015625 C-19.76188454 10.49558586 -17.1073134 6.41721243 -12.875 1.5625 C-8.61366083 -0.7534452 -4.7440878 -0.76994212 0 0 Z " fill="#F4F4F5" transform="translate(219,300)"/>
<path d="M0 0 C4.95 0 9.9 0 15 0 C15 8.58 15 17.16 15 26 C2.25 32 2.25 32 0 32 C0 21.44 0 10.88 0 0 Z " fill="#F7F7F7" transform="translate(252,186)"/>
<path d="M0 0 C0.66 0 1.32 0 2 0 C2.66 2.97 3.32 5.94 4 9 C8.95 7.515 8.95 7.515 14 6 C12.47524303 9.04951395 11.07114674 11.36399506 9 14 C9.97453125 14.63228516 9.97453125 14.63228516 10.96875 15.27734375 C11.8040625 15.82519531 12.639375 16.37304688 13.5 16.9375 C14.3353125 17.48277344 15.170625 18.02804688 16.03125 18.58984375 C17.00578125 19.28787109 17.00578125 19.28787109 18 20 C18 20.33 18 20.66 18 21 C14.37 21 10.74 21 7 21 C7.66 24.63 8.32 28.26 9 32 C3.125 27.25 3.125 27.25 2 25 C1.34 25 0.68 25 0 25 C-1.69088222 26.97956942 -3.35830472 28.97945196 -5 31 C-5.33 31 -5.66 31 -6 31 C-6.125 24.375 -6.125 24.375 -5 21 C-8.63 21 -12.26 21 -16 21 C-13.07175348 18.07175348 -10.7020007 16.72760033 -7 15 C-8.65 12.03 -10.3 9.06 -12 6 C-9.03 6.99 -6.06 7.98 -3 9 C-2.01 6.03 -1.02 3.06 0 0 Z " fill="#00B45E" transform="translate(296,123)"/>
<path d="M0 0 C1.64331055 1.15527344 1.64331055 1.15527344 3 3 C3.28051758 5.70800781 3.28051758 5.70800781 3.14453125 8.953125 C3.07588867 10.71849609 3.07588867 10.71849609 3.00585938 12.51953125 C2.94205078 13.75058594 2.87824219 14.98164063 2.8125 16.25 C2.74579102 18.07337891 2.74579102 18.07337891 2.67773438 19.93359375 C2.37901476 26.69719595 2.06839664 32.86320672 -1 39 C-4.0625 39.625 -4.0625 39.625 -7 40 C-9.78490859 36.08049902 -8.81114407 32.21387984 -8.125 27.75 C-8.02058594 27.00492187 -7.91617188 26.25984375 -7.80859375 25.4921875 C-7.55018787 23.65985489 -7.27657918 21.82967766 -7 20 C-8.3921875 20.061875 -8.3921875 20.061875 -9.8125 20.125 C-13 20 -13 20 -16 18 C-16 17.34 -16 16.68 -16 16 C-13.69 15.01 -11.38 14.02 -9 13 C-9.04640625 12.39671875 -9.0928125 11.7934375 -9.140625 11.171875 C-9.43470483 4.66010733 -9.43470483 4.66010733 -7.3125 1.4375 C-4.54815528 -0.28087645 -3.19625513 -0.57368682 0 0 Z " fill="#EFEFF0" transform="translate(243,292)"/>
<path d="M0 0 C4.95 0 9.9 0 15 0 C16.93231556 17.30826243 16.93231556 17.30826243 13.75634766 21.73242188 C10.05661882 24.9555406 4.98631929 28 0 28 C0 18.76 0 9.52 0 0 Z " fill="#FDFDFD" transform="translate(275,179)"/>
<path d="M0 0 C5.61 0 11.22 0 17 0 C12.86584601 12.40246198 3.12227224 21.06125007 -8.15234375 27.28515625 C-8.76207031 27.52105469 -9.37179687 27.75695312 -10 28 C-10.66 27.67 -11.32 27.34 -12 27 C-11.278125 25.9275 -10.55625 24.855 -9.8125 23.75 C-5.18036108 16.34120963 -2.39061132 8.36713961 0 0 Z " fill="#00B860" transform="translate(279,229)"/>
<path d="M0 0 C4.62 0 9.24 0 14 0 C14 6.93 14 13.86 14 21 C5 24 5 24 0 25 C0 16.75 0 8.5 0 0 Z " fill="#FDFDFD" transform="translate(230,200)"/>
<path d="M0 0 C4.62 0 9.24 0 14 0 C14 5.61 14 11.22 14 17 C9.38 17.66 4.76 18.32 0 19 C0 12.73 0 6.46 0 0 Z " fill="#FCFCFC" transform="translate(207,211)"/>
<path d="M0 0 C2.375 1.0625 2.375 1.0625 4 3 C4.57349318 6.9427656 4.5664946 9.09360864 2.4375 12.5 C0 14 0 14 -3.5625 14 C-7 13 -7 13 -9 11.3125 C-10.37694267 8.12832007 -9.980224 6.29075199 -9 3 C-6.69027592 -0.64693276 -4.08119519 -0.49973819 0 0 Z " fill="#00B65F" transform="translate(253,130)"/>
<path d="M0 0 C4.07218289 0.36959845 6.4450847 0.7837023 9.91015625 3.09375 C10.47265625 5.78125 10.47265625 5.78125 9.91015625 9.09375 C8.16476686 11.68586103 6.19114196 13.95809025 3.91015625 16.09375 C3.58015625 16.09375 3.25015625 16.09375 2.91015625 16.09375 C2.25015625 14.11375 1.59015625 12.13375 0.91015625 10.09375 C-1.72984375 9.76375 -4.36984375 9.43375 -7.08984375 9.09375 C-3.86865946 0.17354734 -3.86865946 0.17354734 0 0 Z " fill="#00B55E" transform="translate(253.08984375,163.90625)"/>
<path d="M0 0 C3 1 3 1 4.75 4.3125 C6.33072237 8.97563098 6.33072237 8.97563098 5 12 C4.01 11.34 3.02 10.68 2 10 C2 9.34 2 8.68 2 8 C1.01 7.67 0.02 7.34 -1 7 C-1.04254356 5.00045254 -1.04080783 2.99958364 -1 1 C-0.67 0.67 -0.34 0.34 0 0 Z " fill="#29353D" transform="translate(332,315)"/>
<path d="M0 0 C1.55932272 3.11864545 0.65549131 5.66295335 0 9 C-0.66 9.66 -1.32 10.32 -2 11 C-2.99 11 -3.98 11 -5 11 C-5.3125 8.3125 -5.3125 8.3125 -5 5 C-2.5 2.125 -2.5 2.125 0 0 Z " fill="#08161F" transform="translate(189,308)"/>
<path d="M0 0 C0.66 0.33 1.32 0.66 2 1 C2 1.66 2 2.32 2 3 C-0.1875 4.5078125 -0.1875 4.5078125 -3 6.125 C-3.928125 6.66382813 -4.85625 7.20265625 -5.8125 7.7578125 C-6.534375 8.16773438 -7.25625 8.57765625 -8 9 C-8.33 8.34 -8.66 7.68 -9 7 C-6.3765992 4.08511023 -3.28183606 2.11496102 0 0 Z " fill="#0A2325" transform="translate(285,201)"/>
<path d="M0 0 C0.66 0 1.32 0 2 0 C2 3.63 2 7.26 2 11 C1.34 11 0.68 11 0 11 C-0.33 12.32 -0.66 13.64 -1 15 C-0.67 10.05 -0.34 5.1 0 0 Z " fill="#535C63" transform="translate(234,312)"/>
<path d="M0 0 C0.66 0.33 1.32 0.66 2 1 C2 1.66 2 2.32 2 3 C-0.64 3.99 -3.28 4.98 -6 6 C-6.33 5.01 -6.66 4.02 -7 3 C-4.69631264 1.93347808 -2.35981813 0.93578995 0 0 Z " fill="#0D2527" transform="translate(263,213)"/>
</svg>
